<mxfile host="app.diagrams.net" agent="Mozilla/5.0 (Windows NT 10.0; Win64; x64) AppleWebKit/537.36 (KHTML, like Gecko) Chrome/130.0.0.0 Safari/537.36" version="24.7.17">
  <diagram name="Page-1" id="l8T8iIdn8j84xUpPSEU9">
    <mxGraphModel dx="1042" dy="567" grid="1" gridSize="10" guides="1" tooltips="1" connect="1" arrows="1" fold="1" page="1" pageScale="1" pageWidth="850" pageHeight="1100" math="0" shadow="0">
      <root>
        <mxCell id="0" />
        <mxCell id="1" parent="0" />
        <mxCell id="br6Rb9tCBVnqclDdbLH4-1" value="song- recommendation -system&lt;div&gt;0&lt;/div&gt;" style="ellipse;whiteSpace=wrap;html=1;" parent="1" vertex="1">
          <mxGeometry x="345" y="160" width="105" height="70" as="geometry" />
        </mxCell>
        <mxCell id="br6Rb9tCBVnqclDdbLH4-3" value="" style="curved=1;endArrow=classic;html=1;rounded=0;entryX=1;entryY=0.25;entryDx=0;entryDy=0;exitX=1;exitY=0.5;exitDx=0;exitDy=0;" parent="1" source="br6Rb9tCBVnqclDdbLH4-1" target="niw3-SMgEyT81MJt9HR--1" edge="1">
          <mxGeometry width="50" height="50" relative="1" as="geometry">
            <mxPoint x="440" y="230" as="sourcePoint" />
            <mxPoint x="450" y="70" as="targetPoint" />
            <Array as="points">
              <mxPoint x="520" y="230" />
              <mxPoint x="550" y="180" />
              <mxPoint x="550" y="100" />
            </Array>
          </mxGeometry>
        </mxCell>
        <mxCell id="br6Rb9tCBVnqclDdbLH4-4" value="" style="curved=1;endArrow=classic;html=1;rounded=0;entryX=0;entryY=0.5;entryDx=0;entryDy=0;exitX=0;exitY=0.25;exitDx=0;exitDy=0;targetPerimeterSpacing=0;" parent="1" source="niw3-SMgEyT81MJt9HR--1" target="br6Rb9tCBVnqclDdbLH4-1" edge="1">
          <mxGeometry width="50" height="50" relative="1" as="geometry">
            <mxPoint x="360" y="70" as="sourcePoint" />
            <mxPoint x="150" y="240" as="targetPoint" />
            <Array as="points">
              <mxPoint x="320" y="70" />
              <mxPoint x="270" y="90" />
              <mxPoint x="270" y="120" />
              <mxPoint x="270" y="110" />
              <mxPoint x="230" y="240" />
            </Array>
          </mxGeometry>
        </mxCell>
        <mxCell id="br6Rb9tCBVnqclDdbLH4-5" value="&lt;div&gt;&lt;font style=&quot;font-size: 18px;&quot;&gt;Level0&amp;nbsp;&lt;/font&gt;&lt;/div&gt;&lt;font style=&quot;font-size: 18px;&quot;&gt;Context diagram&lt;/font&gt;" style="text;html=1;align=center;verticalAlign=middle;whiteSpace=wrap;rounded=0;" parent="1" vertex="1">
          <mxGeometry x="590" y="110" width="160" height="50" as="geometry" />
        </mxCell>
        <mxCell id="br6Rb9tCBVnqclDdbLH4-6" value="user-details" style="text;html=1;align=center;verticalAlign=middle;whiteSpace=wrap;rounded=0;" parent="1" vertex="1">
          <mxGeometry x="270" y="130" width="60" height="30" as="geometry" />
        </mxCell>
        <mxCell id="br6Rb9tCBVnqclDdbLH4-7" value="userid" style="text;html=1;align=center;verticalAlign=middle;whiteSpace=wrap;rounded=0;" parent="1" vertex="1">
          <mxGeometry x="490" y="120" width="60" height="30" as="geometry" />
        </mxCell>
        <mxCell id="br6Rb9tCBVnqclDdbLH4-8" value="&lt;div&gt;register-user&lt;/div&gt;0.1" style="ellipse;whiteSpace=wrap;html=1;" parent="1" vertex="1">
          <mxGeometry x="198.75" y="460" width="112.5" height="70" as="geometry" />
        </mxCell>
        <mxCell id="br6Rb9tCBVnqclDdbLH4-10" value="" style="curved=1;endArrow=classic;html=1;rounded=0;entryX=0.031;entryY=0.371;entryDx=0;entryDy=0;entryPerimeter=0;" parent="1" target="br6Rb9tCBVnqclDdbLH4-8" edge="1">
          <mxGeometry width="50" height="50" relative="1" as="geometry">
            <mxPoint x="100" y="550" as="sourcePoint" />
            <mxPoint x="177.5" y="500" as="targetPoint" />
            <Array as="points">
              <mxPoint x="177.5" y="550" />
              <mxPoint x="127.5" y="500" />
            </Array>
          </mxGeometry>
        </mxCell>
        <mxCell id="br6Rb9tCBVnqclDdbLH4-11" value="&lt;div&gt;search-song&lt;/div&gt;0.2" style="ellipse;whiteSpace=wrap;html=1;" parent="1" vertex="1">
          <mxGeometry x="463.75" y="450" width="112.5" height="70" as="geometry" />
        </mxCell>
        <mxCell id="niw3-SMgEyT81MJt9HR--1" value="User" style="shape=partialRectangle;whiteSpace=wrap;html=1;left=0;right=0;fillColor=none;" parent="1" vertex="1">
          <mxGeometry x="330" y="30" width="120" height="40" as="geometry" />
        </mxCell>
        <mxCell id="niw3-SMgEyT81MJt9HR--2" value="user-details" style="text;html=1;align=center;verticalAlign=middle;whiteSpace=wrap;rounded=0;" parent="1" vertex="1">
          <mxGeometry x="70" y="520" width="80" height="20" as="geometry" />
        </mxCell>
        <mxCell id="niw3-SMgEyT81MJt9HR--4" value="userid" style="text;html=1;align=center;verticalAlign=middle;whiteSpace=wrap;rounded=0;" parent="1" vertex="1">
          <mxGeometry x="321.25" y="410" width="60" height="30" as="geometry" />
        </mxCell>
        <mxCell id="niw3-SMgEyT81MJt9HR--6" value="" style="curved=1;endArrow=classic;html=1;rounded=0;exitX=1;exitY=0.5;exitDx=0;exitDy=0;" parent="1" source="br6Rb9tCBVnqclDdbLH4-8" edge="1">
          <mxGeometry width="50" height="50" relative="1" as="geometry">
            <mxPoint x="290" y="495" as="sourcePoint" />
            <mxPoint x="320" y="370" as="targetPoint" />
            <Array as="points">
              <mxPoint x="350" y="505" />
              <mxPoint x="380" y="455" />
              <mxPoint x="380" y="375" />
            </Array>
          </mxGeometry>
        </mxCell>
        <mxCell id="niw3-SMgEyT81MJt9HR--5" value="user-data" style="shape=partialRectangle;whiteSpace=wrap;html=1;left=0;right=0;fillColor=none;" parent="1" vertex="1">
          <mxGeometry x="127.5" y="620" width="112.5" height="40" as="geometry" />
        </mxCell>
        <mxCell id="niw3-SMgEyT81MJt9HR--7" value="" style="curved=1;endArrow=classic;html=1;rounded=0;exitX=0.5;exitY=1;exitDx=0;exitDy=0;entryX=0.5;entryY=0;entryDx=0;entryDy=0;" parent="1" source="br6Rb9tCBVnqclDdbLH4-8" edge="1">
          <mxGeometry width="50" height="50" relative="1" as="geometry">
            <mxPoint x="271.25" y="570" as="sourcePoint" />
            <mxPoint x="208.75" y="620" as="targetPoint" />
            <Array as="points">
              <mxPoint x="221.25" y="520" />
              <mxPoint x="271.25" y="620" />
            </Array>
          </mxGeometry>
        </mxCell>
        <mxCell id="niw3-SMgEyT81MJt9HR--8" value="songs-info" style="shape=partialRectangle;whiteSpace=wrap;html=1;left=0;right=0;fillColor=none;" parent="1" vertex="1">
          <mxGeometry x="320" y="620" width="120" height="40" as="geometry" />
        </mxCell>
        <mxCell id="niw3-SMgEyT81MJt9HR--9" value="" style="curved=1;endArrow=classic;html=1;rounded=0;exitX=0.5;exitY=1;exitDx=0;exitDy=0;entryX=0.5;entryY=0;entryDx=0;entryDy=0;" parent="1" source="br6Rb9tCBVnqclDdbLH4-11" target="niw3-SMgEyT81MJt9HR--8" edge="1">
          <mxGeometry width="50" height="50" relative="1" as="geometry">
            <mxPoint x="484" y="520" as="sourcePoint" />
            <mxPoint x="488" y="650" as="targetPoint" />
            <Array as="points">
              <mxPoint x="450" y="510" />
              <mxPoint x="500" y="610" />
            </Array>
          </mxGeometry>
        </mxCell>
        <mxCell id="niw3-SMgEyT81MJt9HR--10" value="" style="curved=1;endArrow=classic;html=1;rounded=0;entryX=1;entryY=0;entryDx=0;entryDy=0;" parent="1" target="br6Rb9tCBVnqclDdbLH4-11" edge="1">
          <mxGeometry width="50" height="50" relative="1" as="geometry">
            <mxPoint x="610" y="375" as="sourcePoint" />
            <mxPoint x="560" y="425" as="targetPoint" />
            <Array as="points">
              <mxPoint x="560" y="375" />
              <mxPoint x="610" y="425" />
            </Array>
          </mxGeometry>
        </mxCell>
        <mxCell id="niw3-SMgEyT81MJt9HR--11" value="songs-details" style="text;html=1;align=center;verticalAlign=middle;whiteSpace=wrap;rounded=0;" parent="1" vertex="1">
          <mxGeometry x="580" y="350" width="80" height="20" as="geometry" />
        </mxCell>
        <mxCell id="niw3-SMgEyT81MJt9HR--12" value="recommend-songs-playlist&lt;div&gt;0.3&lt;/div&gt;" style="ellipse;whiteSpace=wrap;html=1;" parent="1" vertex="1">
          <mxGeometry x="230" y="740" width="120" height="80" as="geometry" />
        </mxCell>
        <mxCell id="niw3-SMgEyT81MJt9HR--13" value="" style="curved=1;endArrow=classic;html=1;rounded=0;exitX=0.5;exitY=1;exitDx=0;exitDy=0;entryX=0;entryY=0;entryDx=0;entryDy=0;" parent="1" source="niw3-SMgEyT81MJt9HR--5" target="niw3-SMgEyT81MJt9HR--12" edge="1">
          <mxGeometry width="50" height="50" relative="1" as="geometry">
            <mxPoint x="174" y="690" as="sourcePoint" />
            <mxPoint x="178" y="820" as="targetPoint" />
            <Array as="points">
              <mxPoint x="140" y="680" />
              <mxPoint x="190" y="780" />
            </Array>
          </mxGeometry>
        </mxCell>
        <mxCell id="niw3-SMgEyT81MJt9HR--14" value="" style="curved=1;endArrow=classic;html=1;rounded=0;exitX=0.5;exitY=1;exitDx=0;exitDy=0;" parent="1" source="niw3-SMgEyT81MJt9HR--8" target="niw3-SMgEyT81MJt9HR--12" edge="1">
          <mxGeometry width="50" height="50" relative="1" as="geometry">
            <mxPoint x="380" y="690" as="sourcePoint" />
            <mxPoint x="423" y="690" as="targetPoint" />
            <Array as="points">
              <mxPoint x="390" y="710" />
            </Array>
          </mxGeometry>
        </mxCell>
        <mxCell id="niw3-SMgEyT81MJt9HR--15" value="" style="curved=1;endArrow=classic;html=1;rounded=0;exitX=0;exitY=1;exitDx=0;exitDy=0;entryX=0;entryY=1;entryDx=0;entryDy=0;" parent="1" target="niw3-SMgEyT81MJt9HR--12" edge="1">
          <mxGeometry width="50" height="50" relative="1" as="geometry">
            <mxPoint x="190" y="890" as="sourcePoint" />
            <mxPoint x="250" y="820" as="targetPoint" />
            <Array as="points">
              <mxPoint x="250" y="870" />
              <mxPoint x="200" y="820" />
            </Array>
          </mxGeometry>
        </mxCell>
        <mxCell id="niw3-SMgEyT81MJt9HR--16" value="generate-playlist&lt;div&gt;&lt;br&gt;&lt;/div&gt;" style="text;html=1;align=center;verticalAlign=middle;whiteSpace=wrap;rounded=0;" parent="1" vertex="1">
          <mxGeometry x="130" y="850" width="90" height="20" as="geometry" />
        </mxCell>
        <mxCell id="niw3-SMgEyT81MJt9HR--17" value="find-songs&lt;div&gt;0.3.1&lt;/div&gt;" style="ellipse;whiteSpace=wrap;html=1;" parent="1" vertex="1">
          <mxGeometry x="270" y="1060" width="120" height="80" as="geometry" />
        </mxCell>
        <mxCell id="niw3-SMgEyT81MJt9HR--18" value="" style="curved=1;endArrow=classic;html=1;rounded=0;exitX=1;exitY=0;exitDx=0;exitDy=0;entryX=1;entryY=0;entryDx=0;entryDy=0;" parent="1" target="niw3-SMgEyT81MJt9HR--17" edge="1">
          <mxGeometry width="50" height="50" relative="1" as="geometry">
            <mxPoint x="440" y="990" as="sourcePoint" />
            <mxPoint x="382" y="1072" as="targetPoint" />
            <Array as="points">
              <mxPoint x="392" y="1002" />
              <mxPoint x="442" y="1052" />
            </Array>
          </mxGeometry>
        </mxCell>
        <mxCell id="niw3-SMgEyT81MJt9HR--19" value="generate-playlist&lt;div&gt;&lt;br&gt;&lt;/div&gt;" style="text;html=1;align=center;verticalAlign=middle;whiteSpace=wrap;rounded=0;" parent="1" vertex="1">
          <mxGeometry x="310" y="1030" width="92" height="22" as="geometry" />
        </mxCell>
        <mxCell id="hpCS2EStfi_OME7MbLcs-1" value="&lt;div&gt;&lt;font style=&quot;font-size: 18px;&quot;&gt;Level2 DFD&lt;/font&gt;&lt;/div&gt;" style="text;html=1;align=center;verticalAlign=middle;whiteSpace=wrap;rounded=0;" parent="1" vertex="1">
          <mxGeometry x="510" y="1060" width="100" height="20" as="geometry" />
        </mxCell>
        <mxCell id="hpCS2EStfi_OME7MbLcs-2" value="&lt;div&gt;&lt;font style=&quot;font-size: 18px;&quot;&gt;Level1 DFD&lt;/font&gt;&lt;/div&gt;" style="text;html=1;align=center;verticalAlign=middle;whiteSpace=wrap;rounded=0;" parent="1" vertex="1">
          <mxGeometry x="650" y="415" width="100" height="20" as="geometry" />
        </mxCell>
        <mxCell id="hpCS2EStfi_OME7MbLcs-5" value="" style="curved=1;endArrow=classic;html=1;rounded=0;exitX=0;exitY=0.5;exitDx=0;exitDy=0;entryX=0.5;entryY=0;entryDx=0;entryDy=0;" parent="1" source="niw3-SMgEyT81MJt9HR--17" target="hpCS2EStfi_OME7MbLcs-7" edge="1">
          <mxGeometry width="50" height="50" relative="1" as="geometry">
            <mxPoint x="260" y="1110" as="sourcePoint" />
            <mxPoint x="210" y="1160" as="targetPoint" />
            <Array as="points">
              <mxPoint x="210" y="1110" />
              <mxPoint x="260" y="1160" />
            </Array>
          </mxGeometry>
        </mxCell>
        <mxCell id="hpCS2EStfi_OME7MbLcs-7" value="validate-song-data&lt;div&gt;0.3.2&lt;/div&gt;" style="ellipse;whiteSpace=wrap;html=1;" parent="1" vertex="1">
          <mxGeometry x="160" y="1170" width="120" height="80" as="geometry" />
        </mxCell>
        <mxCell id="hpCS2EStfi_OME7MbLcs-9" value="" style="curved=1;endArrow=classic;html=1;rounded=0;exitX=0;exitY=0.5;exitDx=0;exitDy=0;entryX=0.5;entryY=0;entryDx=0;entryDy=0;" parent="1" edge="1">
          <mxGeometry width="50" height="50" relative="1" as="geometry">
            <mxPoint x="213.75" y="1250" as="sourcePoint" />
            <mxPoint x="163.75" y="1320" as="targetPoint" />
            <Array as="points">
              <mxPoint x="153.75" y="1260" />
              <mxPoint x="203.75" y="1310" />
            </Array>
          </mxGeometry>
        </mxCell>
        <mxCell id="hpCS2EStfi_OME7MbLcs-10" value="&lt;div&gt;song-info&lt;/div&gt;" style="text;html=1;align=center;verticalAlign=middle;whiteSpace=wrap;rounded=0;" parent="1" vertex="1">
          <mxGeometry x="150" y="1138" width="82" height="32" as="geometry" />
        </mxCell>
        <mxCell id="hpCS2EStfi_OME7MbLcs-11" value="&lt;div&gt;get-song-info&lt;/div&gt;" style="text;html=1;align=center;verticalAlign=middle;whiteSpace=wrap;rounded=0;" parent="1" vertex="1">
          <mxGeometry x="188" y="1280" width="82" height="32" as="geometry" />
        </mxCell>
      </root>
    </mxGraphModel>
  </diagram>
</mxfile>
